# xmcd
#
# Track frame offsets:
#	150
#	12700
#	22642
#	37252
#	52280
#	68220
#	79545
#	87507
#	99705
#	109052
#	121735
#	130017
#	140255
#	154465
#	165650
#	177430
#	187825
#	198457
#	213087
#	227440
#
# Disc length: 3200 seconds
#
# Revision: 1
# Processed by: cddbd v1.5.2PL0 Copyright (c) Steve Scherf et al.
# Submitted via: audiograbber 1.83.01
#
DISCID=0e0c7e14
DTITLE=Various Artist - friends and Lovers
DYEAR=1900
DGENRE=
TTITLE0=LS-FaL-01-Anne Murray-I Just Fall In Love Again
TTITLE1=LS-FaL-02-Ricky Nelson-Never Be Anyone Else But You
TTITLE2=LS-FaL-03-Gene Pitney-Looking Through The Eyes of Love
TTITLE3=LS-FaL-04-Jay and The Americans-Can't Take My Eyes off You
TTITLE4=LS-FaL-05-Mary Wells-To Feel Your Love
TTITLE5=LS-FaL-06-The Turtles-Eleonore
TTITLE6=LS-FaL-07-Neil Sedaka-Calendar Girl
TTITLE7=LS-FaL-08-The Temptations-Beauty Is Only Skin Deep
TTITLE8=LS-FaL-09-Sandy Posey-When I will Be Loved
TTITLE9=LS-FaL-10-Jerry Butler-He Will Break Your Heard
TTITLE10=LS-FaL-11-The Chiffons-He's so fine
TTITLE11=LS-FaL-12-Billy Fury-Last Night Was Made For Love
TTITLE12=LS-FaL-13-Mamas And The Papas-I Saw Her Again
TTITLE13=LS-FaL-14-The New Seekers-I'D Like To Teach The World To Sing
TTITLE14=LS-FaL-15-Skeeter Davis-The End Of The World
TTITLE15=LS-FaL-16-Jimmie Rodgers-Kisses Sweeter Than Wine
TTITLE16=LS-FaL-17-Frankie Avalon-Venus
TTITLE17=LS-FaL-18-Mamas And The Papas-Straight Shooter
TTITLE18=LS-FaL-19-Nino Tempo and April-You Turn Me On
TTITLE19=LS-FaL-20-The Dixie Cups-The Chapel Of Love
EXTD=
EXTT0=
EXTT1=
EXTT2=
EXTT3=
EXTT4=
EXTT5=
EXTT6=
EXTT7=
EXTT8=
EXTT9=
EXTT10=
EXTT11=
EXTT12=
EXTT13=
EXTT14=
EXTT15=
EXTT16=
EXTT17=
EXTT18=
EXTT19=
PLAYORDER=
